<?xml version="1.0" encoding="utf-8"?>
<!-- Generator: Adobe Illustrator 16.0.0, SVG Export Plug-In . SVG Version: 6.00 Build 0)  -->
<!DOCTYPE svg PUBLIC "-//W3C//DTD SVG 1.1//EN" "http://www.w3.org/Graphics/SVG/1.1/DTD/svg11.dtd">
<svg version="1.1" id="Layer_1" xmlns="http://www.w3.org/2000/svg" xmlns:xlink="http://www.w3.org/1999/xlink" x="0px" y="0px"
	 width="24px" height="24px" viewBox="0 0 24 24" enable-background="new 0 0 24 24" xml:space="preserve">
<rect width="24" height="24"/>
<g display="none">
	
		<line display="inline" fill="none" stroke="#FFFFFF" stroke-width="2" stroke-linecap="round" stroke-miterlimit="10" x1="1" y1="1" x2="23" y2="1"/>
	
		<line display="inline" fill="none" stroke="#FFFFFF" stroke-width="2" stroke-linecap="round" stroke-miterlimit="10" x1="1" y1="12" x2="23" y2="12"/>
	
		<line display="inline" fill="none" stroke="#FFFFFF" stroke-width="2" stroke-linecap="round" stroke-miterlimit="10" x1="1" y1="23" x2="23" y2="23"/>
</g>
<g display="none">
	<g display="inline">
		<path fill="#FFFFFF" d="M9,2c3.859,0,7,3.14,7,7c0,3.859-3.141,7-7,7c-3.86,0-7-3.141-7-7C2,5.14,5.14,2,9,2 M9,0
			C4.029,0,0,4.029,0,9c0,4.971,4.029,9,9,9c4.971,0,9-4.029,9-9C18,4.029,13.971,0,9,0L9,0z"/>
	</g>
	
		<line display="inline" fill="none" stroke="#FFFFFF" stroke-width="2" stroke-linecap="round" stroke-miterlimit="10" x1="14.834" y1="14.548" x2="22.615" y2="22.452"/>
</g>
<polyline fill="none" stroke="#FFFFFF" stroke-width="2" stroke-linecap="round" stroke-miterlimit="10" points="1,7 12,18 23,7 "/>
</svg>
