<?xml version="1.0" encoding="utf-8"?>
<!-- Generator: Adobe Illustrator 16.0.0, SVG Export Plug-In . SVG Version: 6.00 Build 0)  -->
<!DOCTYPE svg PUBLIC "-//W3C//DTD SVG 1.1//EN" "http://www.w3.org/Graphics/SVG/1.1/DTD/svg11.dtd">
<svg version="1.1" id="Layer_1" xmlns="http://www.w3.org/2000/svg" xmlns:xlink="http://www.w3.org/1999/xlink" x="0px" y="0px"
	 width="24px" height="24px" viewBox="0 0 24 24" enable-background="new 0 0 24 24" xml:space="preserve">
<rect display="none" width="24" height="24"/>
<g>
	
		<line fill="none" stroke="#FFFFFF" stroke-width="3" stroke-linecap="round" stroke-miterlimit="10" x1="2" y1="2.909" x2="22" y2="2.909"/>
	
		<line fill="none" stroke="#FFFFFF" stroke-width="3" stroke-linecap="round" stroke-miterlimit="10" x1="2" y1="12" x2="22" y2="12"/>
	
		<line fill="none" stroke="#FFFFFF" stroke-width="3" stroke-linecap="round" stroke-miterlimit="10" x1="2" y1="21.092" x2="22" y2="21.092"/>
</g>
<g display="none">
	<g display="inline">
		<path fill="#FFFFFF" stroke="#FFFFFF" stroke-miterlimit="10" d="M10,3c3.859,0,7,3.14,7,7c0,3.859-3.141,7-7,7
			c-3.86,0-7-3.141-7-7C3,6.14,6.14,3,10,3 M10,1c-4.971,0-9,4.028-9,9c0,4.971,4.029,9,9,9c4.971,0,9-4.029,9-9
			C19,5.028,14.971,1,10,1L10,1z"/>
	</g>
	
		<line display="inline" fill="none" stroke="#FFFFFF" stroke-width="3" stroke-linecap="round" stroke-miterlimit="10" x1="16.018" y1="15.75" x2="22" y2="22"/>
</g>
<polyline display="none" fill="none" stroke="#FFFFFF" stroke-width="2" stroke-linecap="round" stroke-miterlimit="10" points="
	1,7 12,18 23,7 "/>
</svg>
